<svg width="24" height="24" viewBox="0 0 24 24" fill="none" xmlns="http://www.w3.org/2000/svg">
<path d="M22.8918 10.0004L13.5099 10C13.0956 10 12.7598 10.3357 12.7598 10.75V13.747C12.7598 14.1612 13.0956 14.497 13.5098 14.497H18.7931C18.2146 15.9983 17.1348 17.2556 15.7572 18.0545L18.01 21.9542C21.6237 19.8643 23.7602 16.1973 23.7602 12.0925C23.7602 11.508 23.7171 11.0902 23.631 10.6197C23.5655 10.2623 23.2551 10.0004 22.8918 10.0004Z" fill="#167EE6"/>
<path d="M12.2593 18.9991C9.67377 18.9991 7.41662 17.5864 6.20435 15.4961L2.30469 17.7437C4.2892 21.183 8.00683 23.4991 12.2593 23.4991C14.3454 23.4991 16.3139 22.9374 18.0096 21.9586V21.9533L15.7568 18.0536C14.7263 18.6512 13.5339 18.9991 12.2593 18.9991Z" fill="#12B347"/>
<path d="M18.01 21.9597V21.9544L15.7572 18.0547C14.7268 18.6523 13.5344 19.0002 12.2598 19.0002V23.5002C14.3459 23.5002 16.3144 22.9385 18.01 21.9597Z" fill="#0F993E"/>
<path d="M5.25997 12.0005C5.25997 10.7261 5.60777 9.53385 6.2053 8.50348L2.30564 6.25586C1.3214 7.94614 0.759766 9.90913 0.759766 12.0005C0.759766 14.0919 1.3214 16.0549 2.30564 17.7452L6.2053 15.4975C5.60777 14.4672 5.25997 13.2749 5.25997 12.0005Z" fill="#FFD500"/>
<path d="M12.2593 5C13.9454 5 15.4941 5.59908 16.7037 6.59558C17.0022 6.8414 17.4359 6.82365 17.7093 6.5503L19.8328 4.42685C20.143 4.11671 20.1209 3.60904 19.7895 3.32163C17.7628 1.56344 15.1258 0.5 12.2593 0.5C8.00683 0.5 4.2892 2.81604 2.30469 6.25535L6.20435 8.50297C7.41662 6.41262 9.67377 5 12.2593 5Z" fill="#FF4B26"/>
<path d="M16.7042 6.59558C17.0026 6.8414 17.4364 6.82365 17.7097 6.5503L19.8333 4.42685C20.1434 4.11671 20.1213 3.60904 19.79 3.32163C17.7633 1.56339 15.1262 0.5 12.2598 0.5V5C13.9458 5 15.4945 5.59908 16.7042 6.59558Z" fill="#D93F21"/>
</svg>
