<svg width="24" height="24" viewBox="0 0 24 24" fill="none" xmlns="http://www.w3.org/2000/svg">
<g clip-path="url(#clip0_612_2783)">
<path d="M12 0C9.62663 0 7.30655 0.703787 5.33316 2.02236C3.35977 3.34094 1.8217 5.21508 0.913451 7.4078C0.00519921 9.60051 -0.232441 12.0133 0.230582 14.3411C0.693605 16.6689 1.83649 18.807 3.51472 20.4853C5.19295 22.1635 7.33115 23.3064 9.65892 23.7694C11.9867 24.2324 14.3995 23.9948 16.5922 23.0865C18.7849 22.1783 20.6591 20.6402 21.9776 18.6668C23.2962 16.6934 24 14.3734 24 12C23.9963 8.81855 22.7308 5.76847 20.4812 3.51884C18.2315 1.26922 15.1815 0.00373629 12 0ZM12 22.5882C9.90585 22.5882 7.85872 21.9672 6.1175 20.8038C4.37627 19.6403 3.01915 17.9867 2.21775 16.0519C1.41635 14.1172 1.20667 11.9883 1.61522 9.93434C2.02377 7.88042 3.0322 5.99378 4.51299 4.51299C5.99378 3.03219 7.88042 2.02376 9.93434 1.61521C11.9883 1.20666 14.1172 1.41635 16.0519 2.21775C17.9867 3.01914 19.6403 4.37626 20.8038 6.11749C21.9672 7.85872 22.5882 9.90584 22.5882 12C22.5851 14.8072 21.4686 17.4986 19.4836 19.4836C17.4986 21.4686 14.8072 22.5851 12 22.5882ZM15.3224 11.5012C15.4545 11.6335 15.5288 11.8129 15.5288 12C15.5288 12.1871 15.4545 12.3665 15.3224 12.4988L10.6165 17.2047C10.4827 17.3294 10.3057 17.3973 10.1228 17.394C9.93993 17.3908 9.76545 17.3167 9.63612 17.1874C9.50679 17.0581 9.43271 16.8836 9.42949 16.7007C9.42626 16.5179 9.49414 16.3409 9.61883 16.2071L13.8247 12L9.61883 7.79294C9.49414 7.65913 9.42626 7.48214 9.42949 7.29927C9.43271 7.1164 9.50679 6.94192 9.63612 6.81259C9.76545 6.68326 9.93993 6.60918 10.1228 6.60595C10.3057 6.60272 10.4827 6.67061 10.6165 6.79529L15.3224 11.5012Z" fill="#D5D5D2"/>
</g>
<defs>
<clipPath id="clip0_612_2783">
<rect width="24" height="24" fill="white"/>
</clipPath>
</defs>
</svg>
