<svg width="24" height="25" viewBox="0 0 24 25" fill="none" xmlns="http://www.w3.org/2000/svg">
<path d="M17.2397 15.1665C17.0452 16.2528 16.5226 17.2534 15.7422 18.0336C14.9618 18.8139 13.961 19.3363 12.8747 19.5306C12.8334 19.5372 12.7918 19.5406 12.75 19.5409C12.5619 19.5408 12.3806 19.4701 12.2422 19.3426C12.1038 19.2152 12.0183 19.0404 12.0028 18.853C11.9872 18.6655 12.0426 18.479 12.1581 18.3305C12.2736 18.182 12.4407 18.0823 12.6262 18.0512C14.1797 17.7896 15.4978 16.4715 15.7612 14.9152C15.7946 14.7191 15.9045 14.5442 16.0667 14.429C16.229 14.3138 16.4304 14.2679 16.6266 14.3012C16.8227 14.3345 16.9976 14.4444 17.1128 14.6067C17.228 14.7689 17.2739 14.9703 17.2406 15.1665H17.2397ZM20.25 14.2909C20.25 16.4789 19.3808 18.5773 17.8336 20.1245C16.2865 21.6717 14.188 22.5409 12 22.5409C9.81196 22.5409 7.71354 21.6717 6.16637 20.1245C4.61919 18.5773 3.75 16.4789 3.75 14.2909C3.75 11.6734 4.78125 8.9968 6.81188 6.33618C6.87615 6.25193 6.95755 6.18226 7.05071 6.13176C7.14387 6.08126 7.24667 6.05107 7.35235 6.04319C7.45802 6.0353 7.56417 6.0499 7.66379 6.08602C7.76341 6.12214 7.85425 6.17896 7.93031 6.25274L10.1916 8.44743L12.2541 2.78399C12.2953 2.67103 12.363 2.56964 12.4516 2.48836C12.5402 2.40707 12.6471 2.34828 12.7632 2.31694C12.8792 2.2856 13.0011 2.28263 13.1186 2.30827C13.2361 2.33392 13.3457 2.38743 13.4381 2.4643C15.4884 4.16586 20.25 8.71743 20.25 14.2909ZM18.75 14.2909C18.75 9.96993 15.3947 6.23586 13.2928 4.32243L11.205 10.0477C11.1621 10.1653 11.0906 10.2703 10.9967 10.3532C10.9029 10.436 10.7899 10.494 10.6679 10.522C10.5459 10.55 10.4188 10.5469 10.2983 10.5132C10.1778 10.4795 10.0676 10.4162 9.97781 10.329L7.50562 7.93086C6.00844 10.0918 5.25 12.2284 5.25 14.2909C5.25 16.0811 5.96116 17.798 7.22703 19.0638C8.4929 20.3297 10.2098 21.0409 12 21.0409C13.7902 21.0409 15.5071 20.3297 16.773 19.0638C18.0388 17.798 18.75 16.0811 18.75 14.2909Z" fill="black"/>
</svg>
