<svg width="24" height="24" viewBox="0 0 24 24" fill="none" xmlns="http://www.w3.org/2000/svg">
<rect width="24" height="24" rx="4" fill="#F2F2E8"/>
<path d="M16.0827 19H7.91602C7.45189 19 7.00677 18.8156 6.67858 18.4874C6.35039 18.1592 6.16602 17.7141 6.16602 17.25V6.75C6.16602 6.28587 6.35039 5.84075 6.67858 5.51256C7.00677 5.18437 7.45189 5 7.91602 5H16.0827C16.5468 5 16.9919 5.18437 17.3201 5.51256C17.6483 5.84075 17.8327 6.28587 17.8327 6.75V17.25C17.8327 17.7141 17.6483 18.1592 17.3201 18.4874C16.9919 18.8156 16.5468 19 16.0827 19ZM7.91602 6.16667C7.76131 6.16667 7.61293 6.22812 7.50354 6.33752C7.39414 6.44692 7.33268 6.59529 7.33268 6.75V17.25C7.33268 17.4047 7.39414 17.5531 7.50354 17.6625C7.61293 17.7719 7.76131 17.8333 7.91602 17.8333H16.0827C16.2374 17.8333 16.3858 17.7719 16.4952 17.6625C16.6046 17.5531 16.666 17.4047 16.666 17.25V6.75C16.666 6.59529 16.6046 6.44692 16.4952 6.33752C16.3858 6.22812 16.2374 6.16667 16.0827 6.16667H7.91602Z" fill="#878787"/>
<path d="M14.9167 12.584H9.08333C8.92862 12.584 8.78025 12.5225 8.67085 12.4131C8.56146 12.3037 8.5 12.1554 8.5 12.0007C8.5 11.8459 8.56146 11.6976 8.67085 11.5882C8.78025 11.4788 8.92862 11.4173 9.08333 11.4173H14.9167C15.0714 11.4173 15.2197 11.4788 15.3291 11.5882C15.4385 11.6976 15.5 11.8459 15.5 12.0007C15.5 12.1554 15.4385 12.3037 15.3291 12.4131C15.2197 12.5225 15.0714 12.584 14.9167 12.584ZM14.9167 10.2507H9.08333C8.92862 10.2507 8.78025 10.1892 8.67085 10.0798C8.56146 9.9704 8.5 9.82203 8.5 9.66732C8.5 9.51261 8.56146 9.36424 8.67085 9.25484C8.78025 9.14544 8.92862 9.08398 9.08333 9.08398H14.9167C15.0714 9.08398 15.2197 9.14544 15.3291 9.25484C15.4385 9.36424 15.5 9.51261 15.5 9.66732C15.5 9.82203 15.4385 9.9704 15.3291 10.0798C15.2197 10.1892 15.0714 10.2507 14.9167 10.2507ZM14.9167 14.9173H9.08333C8.92862 14.9173 8.78025 14.8559 8.67085 14.7465C8.56146 14.6371 8.5 14.4887 8.5 14.334C8.5 14.1793 8.56146 14.0309 8.67085 13.9215C8.78025 13.8121 8.92862 13.7507 9.08333 13.7507H14.9167C15.0714 13.7507 15.2197 13.8121 15.3291 13.9215C15.4385 14.0309 15.5 14.1793 15.5 14.334C15.5 14.4887 15.4385 14.6371 15.3291 14.7465C15.2197 14.8559 15.0714 14.9173 14.9167 14.9173Z" fill="#878787"/>
</svg>
