<svg width="24" height="25" viewBox="0 0 24 25" fill="none" xmlns="http://www.w3.org/2000/svg">
<path d="M20.2494 4.24915C19.9212 3.91856 19.5067 3.68698 19.0531 3.58088C18.5995 3.47478 18.1252 3.49844 17.6844 3.64915L4.71693 7.99916C4.23634 8.15485 3.8149 8.45389 3.50922 8.8561C3.20354 9.2583 3.02827 9.74442 3.00693 10.2492C2.9752 10.751 3.09568 11.2507 3.35261 11.6829C3.60953 12.1151 3.99094 12.4598 4.44693 12.6717L8.79693 14.6967L13.0569 10.4367C13.1982 10.2954 13.3897 10.2161 13.5894 10.2161C13.7892 10.2161 13.9807 10.2954 14.1219 10.4367C14.2632 10.5779 14.3425 10.7694 14.3425 10.9692C14.3425 11.1689 14.2632 11.3604 14.1219 11.5017L9.86193 15.7617L11.8869 20.1117C12.0861 20.5415 12.4034 20.9058 12.8018 21.1621C13.2002 21.4184 13.6632 21.5561 14.1369 21.5592H14.2869C14.7917 21.5378 15.2778 21.3625 15.68 21.0569C16.0822 20.7512 16.3812 20.3297 16.5369 19.8492L20.8644 6.79915C21.0103 6.35908 21.0299 5.88697 20.9212 5.43629C20.8125 4.98562 20.5798 4.57438 20.2494 4.24915Z" fill="black"/>
</svg>
