<svg width="24" height="25" viewBox="0 0 24 25" fill="none" xmlns="http://www.w3.org/2000/svg">
<path d="M18.5232 12.8904L13.6847 11.1091L11.9035 6.26695C11.798 5.98039 11.6072 5.73307 11.3567 5.55838C11.1063 5.38368 10.8082 5.29002 10.5029 5.29002C10.1975 5.29002 9.89949 5.38368 9.64904 5.55838C9.39858 5.73307 9.20773 5.98039 9.10225 6.26695L7.31912 11.1035L2.47694 12.8848C2.19037 12.9902 1.94305 13.1811 1.76836 13.4316C1.59367 13.682 1.5 13.98 1.5 14.2854C1.5 14.5908 1.59367 14.8888 1.76836 15.1392C1.94305 15.3897 2.19037 15.5805 2.47694 15.686L7.31256 17.4785L9.09381 22.3179C9.1993 22.6045 9.39014 22.8518 9.6406 23.0265C9.89106 23.2012 10.1891 23.2948 10.4944 23.2948C10.7998 23.2948 11.0978 23.2012 11.3483 23.0265C11.5987 22.8518 11.7896 22.6045 11.8951 22.3179L13.6763 17.4795L18.5185 15.6982C18.8051 15.5927 19.0524 15.4019 19.2271 15.1514C19.4018 14.901 19.4954 14.6029 19.4954 14.2976C19.4954 13.9922 19.4018 13.6942 19.2271 13.4437C19.0524 13.1933 18.8051 13.0024 18.5185 12.897L18.5232 12.8904ZM13.1616 16.0723C12.9589 16.1467 12.7749 16.2643 12.6222 16.4169C12.4696 16.5696 12.352 16.7536 12.2776 16.9563L10.4963 21.7807L8.71881 16.9526C8.64436 16.751 8.52712 16.5679 8.37516 16.4159C8.22319 16.264 8.04011 16.1467 7.8385 16.0723L3.01412 14.291L7.8385 12.5098C8.04011 12.4353 8.22319 12.3181 8.37516 12.1661C8.52712 12.0141 8.64436 11.8311 8.71881 11.6295L10.5001 6.80508L12.2813 11.6295C12.3557 11.8321 12.4733 12.0162 12.626 12.1689C12.7786 12.3215 12.9627 12.4391 13.1654 12.5135L17.9897 14.2948L13.1616 16.0723ZM13.5001 4.54102C13.5001 4.3421 13.5791 4.15134 13.7197 4.01069C13.8604 3.87003 14.0511 3.79102 14.2501 3.79102H15.7501V2.29102C15.7501 2.0921 15.8291 1.90134 15.9697 1.76069C16.1104 1.62003 16.3011 1.54102 16.5001 1.54102C16.699 1.54102 16.8897 1.62003 17.0304 1.76069C17.171 1.90134 17.2501 2.0921 17.2501 2.29102V3.79102H18.7501C18.949 3.79102 19.1397 3.87003 19.2804 4.01069C19.421 4.15134 19.5001 4.3421 19.5001 4.54102C19.5001 4.73993 19.421 4.93069 19.2804 5.07135C19.1397 5.212 18.949 5.29102 18.7501 5.29102H17.2501V6.79102C17.2501 6.98993 17.171 7.18069 17.0304 7.32135C16.8897 7.462 16.699 7.54102 16.5001 7.54102C16.3011 7.54102 16.1104 7.462 15.9697 7.32135C15.8291 7.18069 15.7501 6.98993 15.7501 6.79102V5.29102H14.2501C14.0511 5.29102 13.8604 5.212 13.7197 5.07135C13.5791 4.93069 13.5001 4.73993 13.5001 4.54102ZM23.2501 9.04102C23.2501 9.23993 23.171 9.43069 23.0304 9.57135C22.8897 9.712 22.699 9.79102 22.5001 9.79102H21.7501V10.541C21.7501 10.7399 21.671 10.9307 21.5304 11.0713C21.3897 11.212 21.199 11.291 21.0001 11.291C20.8011 11.291 20.6104 11.212 20.4697 11.0713C20.3291 10.9307 20.2501 10.7399 20.2501 10.541V9.79102H19.5001C19.3011 9.79102 19.1104 9.712 18.9697 9.57135C18.8291 9.43069 18.7501 9.23993 18.7501 9.04102C18.7501 8.8421 18.8291 8.65134 18.9697 8.51069C19.1104 8.37003 19.3011 8.29102 19.5001 8.29102H20.2501V7.54102C20.2501 7.3421 20.3291 7.15134 20.4697 7.01069C20.6104 6.87003 20.8011 6.79102 21.0001 6.79102C21.199 6.79102 21.3897 6.87003 21.5304 7.01069C21.671 7.15134 21.7501 7.3421 21.7501 7.54102V8.29102H22.5001C22.699 8.29102 22.8897 8.37003 23.0304 8.51069C23.171 8.65134 23.2501 8.8421 23.2501 9.04102Z" fill="black"/>
</svg>
