<svg width="16" height="16" viewBox="0 0 16 16" fill="none" xmlns="http://www.w3.org/2000/svg">
<path d="M4.86848 9.00635L6.75482 8.06322C7.32084 7.78017 7.7798 7.32119 8.06282 6.75515L9.00635 4.86848C9.03671 4.80776 9.08339 4.75668 9.14114 4.72099C9.1989 4.6853 9.26545 4.66639 9.33335 4.66639C9.40124 4.66639 9.4678 4.6853 9.52555 4.72099C9.58331 4.75668 9.62998 4.80776 9.66035 4.86848L10.6035 6.75482C10.8866 7.32085 11.3455 7.77984 11.9115 8.06288L13.7975 9.00635C13.8583 9.0367 13.9094 9.08337 13.9451 9.14112C13.9808 9.19888 13.9997 9.26544 13.9997 9.33335C13.9997 9.40126 13.9808 9.46782 13.9451 9.52558C13.9094 9.58333 13.8583 9.63 13.7975 9.66035L11.9112 10.6035C11.3452 10.8866 10.8862 11.3455 10.6032 11.9116L9.66002 13.7979C9.62965 13.8586 9.58298 13.9097 9.52522 13.9454C9.46747 13.9811 9.40091 14 9.33302 14C9.26512 14 9.19857 13.9811 9.14081 13.9454C9.08306 13.9097 9.03638 13.8586 9.00602 13.7979L8.06282 11.9116C7.77981 11.3455 7.32085 10.8866 6.75482 10.6035L4.86848 9.66002C4.80782 9.62964 4.75682 9.58297 4.72117 9.52525C4.68552 9.46753 4.66664 9.40103 4.66664 9.33318C4.66664 9.26534 4.68552 9.19884 4.72117 9.14112C4.75682 9.08339 4.80782 9.03673 4.86848 9.00635ZM5.10462 4.54442L5.91302 4.13968C5.93897 4.12665 5.96079 4.10665 5.97604 4.08193C5.99129 4.0572 5.99937 4.02873 5.99937 3.99968C5.99937 3.97064 5.99129 3.94216 5.97604 3.91744C5.96079 3.89272 5.93897 3.87272 5.91302 3.85968L5.10462 3.45535C4.86201 3.33406 4.6653 3.13735 4.54402 2.89475L4.13968 2.08635C4.12665 2.06039 4.10665 2.03857 4.08193 2.02332C4.0572 2.00808 4.02873 2 3.99968 2C3.97064 2 3.94216 2.00808 3.91744 2.02332C3.89272 2.03857 3.87272 2.06039 3.85968 2.08635L3.45535 2.89475C3.33406 3.13735 3.13735 3.33406 2.89475 3.45535L2.08635 3.85968C2.06039 3.87272 2.03857 3.89272 2.02332 3.91744C2.00808 3.94216 2 3.97064 2 3.99968C2 4.02873 2.00808 4.0572 2.02332 4.08193C2.03857 4.10665 2.06039 4.12665 2.08635 4.13968L2.89482 4.54395C3.13741 4.66522 3.33412 4.86191 3.45542 5.10448L3.85968 5.91302C3.87272 5.93897 3.89272 5.96079 3.91744 5.97604C3.94216 5.99129 3.97064 5.99937 3.99968 5.99937C4.02873 5.99937 4.0572 5.99129 4.08193 5.97604C4.10665 5.96079 4.12665 5.93897 4.13968 5.91302L4.54388 5.10455C4.66523 4.86198 4.86198 4.66564 5.10462 4.54442Z" fill="black"/>
</svg>
