<svg width="24" height="25" viewBox="0 0 24 25" fill="none" xmlns="http://www.w3.org/2000/svg">
<path d="M12 3.04102C10.0716 3.04102 8.18657 3.61284 6.58319 4.68419C4.97982 5.75553 3.73013 7.27827 2.99218 9.05985C2.25422 10.8414 2.06114 12.8018 2.43735 14.6931C2.81355 16.5845 3.74215 18.3217 5.10571 19.6853C6.46928 21.0489 8.20656 21.9775 10.0979 22.3537C11.9892 22.7299 13.9496 22.5368 15.7312 21.7988C17.5127 21.0609 19.0355 19.8112 20.1068 18.2078C21.1782 16.6044 21.75 14.7194 21.75 12.791C21.7473 10.206 20.7192 7.72763 18.8913 5.89974C17.0634 4.07185 14.585 3.04375 12 3.04102ZM6.945 19.3066C7.48757 18.4581 8.23501 17.7598 9.11843 17.2761C10.0019 16.7924 10.9928 16.5388 12 16.5388C13.0072 16.5388 13.9982 16.7924 14.8816 17.2761C15.765 17.7598 16.5124 18.4581 17.055 19.3066C15.6097 20.4307 13.831 21.041 12 21.041C10.169 21.041 8.39032 20.4307 6.945 19.3066ZM9 12.041C9 11.4477 9.17595 10.8677 9.5056 10.3743C9.83524 9.88096 10.3038 9.49644 10.852 9.26938C11.4001 9.04231 12.0033 8.9829 12.5853 9.09866C13.1672 9.21442 13.7018 9.50014 14.1213 9.91969C14.5409 10.3393 14.8266 10.8738 14.9424 11.4557C15.0581 12.0377 14.9987 12.6409 14.7716 13.1891C14.5446 13.7372 14.1601 14.2058 13.6667 14.5354C13.1734 14.8651 12.5933 15.041 12 15.041C11.2044 15.041 10.4413 14.7249 9.87868 14.1623C9.31607 13.5997 9 12.8367 9 12.041ZM18.165 18.267C17.3285 17.0548 16.1524 16.1171 14.7844 15.5716C15.5192 14.9929 16.0554 14.1995 16.3184 13.3019C16.5815 12.4042 16.5582 11.4469 16.252 10.5631C15.9457 9.67927 15.3716 8.91285 14.6096 8.37041C13.8475 7.82798 12.9354 7.53649 12 7.53649C11.0646 7.53649 10.1525 7.82798 9.39044 8.37041C8.62839 8.91285 8.05432 9.67927 7.74805 10.5631C7.44179 11.4469 7.41855 12.4042 7.68157 13.3019C7.94459 14.1995 8.4808 14.9929 9.21563 15.5716C7.84765 16.1171 6.67147 17.0548 5.835 18.267C4.77804 17.0784 4.0872 15.6096 3.84567 14.0374C3.60415 12.4653 3.82224 10.8569 4.47368 9.4058C5.12512 7.95474 6.18213 6.72293 7.51745 5.85871C8.85276 4.99448 10.4094 4.53468 12 4.53468C13.5906 4.53468 15.1473 4.99448 16.4826 5.85871C17.8179 6.72293 18.8749 7.95474 19.5263 9.4058C20.1778 10.8569 20.3959 12.4653 20.1543 14.0374C19.9128 15.6096 19.222 17.0784 18.165 18.267Z" fill="black"/>
</svg>
